# xmcd
#
# Track frame offsets:
#	150
#	14827
#	28485
#	40205
#	62267
#	79598
#	93648
#	104857
#	120244
#	142998
#	155639
#	171176
#	183440
#	196605
#	220226
#
# Disc length: 3145 seconds
#
# Revision: 1
# Processed by: cddbd v1.5.1PL0 Copyright (c) Steve Scherf et al.
# Submitted via: audiograbber 1.82.02
#
DISCID=cf0c470f
DTITLE=Merle Haggard and George Jones and Clint Easwood and Willie Nelson - Chartbust
DTITLE=er Merle Haggard 90119
DYEAR=1900
DGENRE=Karaoke
TTITLE0=Merle Haggard  - Natural High
TTITLE1=Merle Haggard  - I take a lot of pride in what I am
TTITLE2=Merle Haggard  - Old man from the mountain
TTITLE3=Merle Haggard  - Motorcycle cowboy
TTITLE4=Merle Haggard and George Jones - CC Waterback
TTITLE5=Merle Haggard  - Misery And Gin
TTITLE6=Merle Haggard and Clint Eastwood - Bar room buddies
TTITLE7=Merle Haggard  - My favorite memory
TTITLE8=Merle Haggard and Willie Nelson  - Pancho and Lefty
TTITLE9=Merle Haggard  - Carolyn
TTITLE10=Merle Haggard  - Always wanting you
TTITLE11=Merle Haggard  - Movin' on
TTITLE12=Merle Haggard  - You take me for granted
TTITLE13=Merle Haggard  - Going where the lonely go
TTITLE14=Merle Haggard and George Jones - Yesterday's wine
EXTD=
EXTT0=
EXTT1=
EXTT2=
EXTT3=
EXTT4=
EXTT5=
EXTT6=
EXTT7=
EXTT8=
EXTT9=
EXTT10=
EXTT11=
EXTT12=
EXTT13=
EXTT14=
PLAYORDER=
